<svg version="1.1" xmlns="http://www.w3.org/2000/svg" viewBox="0 0 180.31095604564564 195.01780070865095" width="180.31095604564564" height="195.01780070865095"><!-- svg-source:excalidraw --><metadata></metadata><defs><style class="style-fonts">
      </style></defs><rect x="0" y="0" width="180.31095604564564" height="195.01780070865095" fill="#ffffff"></rect><g stroke-linecap="round"><g transform="translate(31.195527367059753 57.288141028185464) rotate(0 60.18319597413728 58.77952366967014)"><path d="M2.51 -0.34 C2.45 18.35, -1.49 90.22, 2.3 110.86 C6.09 131.5, 8.48 121.79, 25.25 123.5 C42.03 125.21, 87.57 124.72, 102.94 121.12 C118.31 117.52, 115.22 123.79, 117.46 101.91 C119.71 80.03, 116.26 7.97, 116.41 -10.17 M0.43 -2.99 C-0.23 14.92, -4.96 84.66, 0.15 106.26 C5.25 127.86, 13.7 123.85, 31.05 126.59 C48.4 129.34, 89.09 126.73, 104.25 122.75 C119.4 118.76, 119.59 123.93, 121.96 102.69 C124.34 81.45, 118.88 13.94, 118.51 -4.69" stroke="#1e1e1e" stroke-width="2" fill="none"></path></g></g><mask></mask><g stroke-linecap="round"><g transform="translate(11.988434307649754 50.23857287878286) rotate(0 78.16704371517307 -1.565882422279799)"><path d="M-1.99 0.29 C23.33 -0.46, 126.66 -3.35, 153.43 -3.42 M2.13 -2.02 C28.12 -2.59, 132.32 -0.48, 158.32 -0.98" stroke="#1e1e1e" stroke-width="2" fill="none"></path></g></g><mask></mask><g stroke-linecap="round"><g transform="translate(124.26057220712335 46.577524903800054) rotate(0 -33.471923029805566 -15.910835082534106)"><path d="M-0.72 -1.56 C-2.3 -6.15, -0.44 -23.94, -11.25 -28.14 C-22.06 -32.33, -55.9 -31.75, -65.58 -26.72 C-75.26 -21.69, -69.05 -2.54, -69.31 2.04 M4.09 3.77 C3.55 -1.63, 4.68 -26.64, -5.98 -32.52 C-16.64 -38.4, -49.24 -37.73, -59.9 -31.52 C-70.55 -25.31, -68.13 -0.67, -69.92 4.76" stroke="#1e1e1e" stroke-width="2" fill="none"></path></g></g><mask></mask><g stroke-linecap="round"><g transform="translate(73.61607521986082 85.01852864111981) rotate(0 -0.9415922887777128 30.14733414129205)"><path d="M1.13 2.45 C0.61 12.39, -3.39 49.77, -3.52 58.98 M-1.71 1.31 C-1.32 10.51, 1.45 44.91, 1.64 54.85" stroke="#1e1e1e" stroke-width="2" fill="none"></path></g></g><mask></mask><g stroke-linecap="round"><g transform="translate(107.17568165720343 84.4083539786227) rotate(0 0.31125023760586146 30.758148937879582)"><path d="M1.11 1.49 C1.41 11.01, 2.4 48.89, 2.46 58.02 M-1.73 -0.17 C-1.98 9.76, -1.9 51.9, -0.43 61.68" stroke="#1e1e1e" stroke-width="2" fill="none"></path></g></g><mask></mask></svg>
